<?xml version="1.0" encoding="UTF-8" standalone="no"?>
<svg width="361.244mm" height="26.8111mm"
 viewBox="0 0 1024 76"
 xmlns="http://www.w3.org/2000/svg" xmlns:xlink="http://www.w3.org/1999/xlink"  version="1.2" baseProfile="tiny">
<title>Qt Svg Document</title>
<desc>Generated with Qt</desc>
<defs>
</defs>
<g fill="none" stroke="black" stroke-width="1" fill-rule="evenodd" stroke-linecap="square" stroke-linejoin="bevel" >

<g fill="#ffffff" fill-opacity="1" stroke="none" transform="matrix(1,0,0,1,0,0)"
font-family="Helvetica" font-size="12" font-weight="400" font-style="normal" 
>
<path vector-effect="non-scaling-stroke" fill-rule="evenodd" d="M0,0 L1024,0 L1024,76 L0,76 L0,0"/>
<path vector-effect="non-scaling-stroke" fill-rule="evenodd" d="M0,0 L1024,0 L1024,76 L0,76 L0,0"/>
</g>

<g fill="#000000" fill-opacity="1" stroke="none" transform="matrix(0.976038,0,0,0.976038,8,8.31819)"
font-family="Helvetica" font-size="12" font-weight="400" font-style="normal" 
>
<path vector-effect="non-scaling-stroke" fill-rule="nonzero" d="M10,59.905 L10,58.385 L10,26.12 L10,25.717 L10,12.821 L1,12.821 L1,12.877 C5,13.031 6,14.373 6,18.231 L6,54.473 C6,59.428 3.769,59.768 2.218,60.044 C1.691,60.138 1,60.183 0,60.202 L0,60.821 L8.019,60.821 L9.755,60.821 L10,60.821 L10,59.905"/>
<path vector-effect="non-scaling-stroke" fill-rule="nonzero" d="M35.834,42.186 L39.355,44.894 C40.589,41.421 40.982,38.206 40.982,35.622 C40.982,19.916 29.232,14.046 20.371,12.815 C18.29,12.527 15,12.364 15,12.328 L15,13.291 C20,13.586 24.658,14.834 26.935,16.343 C35.284,21.877 37.07,33.505 35.834,42.186 "/>
<path vector-effect="non-scaling-stroke" fill-rule="nonzero" d="M34.235,47.272 C33.755,48.496 32.074,52.618 29.872,54.863 C27.38,57.403 24.652,58.646 21.24,59.252 C19.834,59.519 17.928,59.702 16.116,59.762 C15.907,59.77 16,59.777 15,59.784 L15,60.821 L17.452,60.821 C24.636,60.821 31.527,58.723 36.421,51.019 L37.024,50.013 L34.235,47.272 M16.442,60.557 C16.268,60.556 16.212,60.556 16.442,60.557 "/>
<path vector-effect="non-scaling-stroke" fill-rule="nonzero" d="M10.731,3.359 C10.731,5.21412 9.22712,6.718 7.372,6.718 C5.51688,6.718 4.013,5.21412 4.013,3.359 C4.013,1.50388 5.51688,0 7.372,0 C9.22712,0 10.731,1.50388 10.731,3.359 "/>
</g>
</g>
</svg>
